<?xml version="1.0" encoding="UTF-8"?>
<!--Generator: Apple Native CoreSVG 326-->
<!DOCTYPE svg
PUBLIC "-//W3C//DTD SVG 1.1//EN"
       "http://www.w3.org/Graphics/SVG/1.1/DTD/svg11.dtd">
<svg version="1.1" xmlns="http://www.w3.org/2000/svg" xmlns:xlink="http://www.w3.org/1999/xlink" viewBox="0 0 1224.12 1269.04">
 <g>
  <rect height="1269.04" opacity="0" width="1224.12" x="0" y="0"/>
  <path d="M1110.84 872.559C1110.84 898.926 1095.7 916.992 1056.15 939.941L674.316 1161.62C650.391 1175.29 632.324 1181.64 611.816 1181.64C591.797 1181.64 573.242 1175.29 549.805 1161.62L167.969 939.941C128.418 916.992 113.281 898.926 113.281 872.559C113.281 854.848 119.864 840.96 135.753 826.973L587.402 1089.36C595.703 1093.75 604.492 1096.68 611.816 1096.68C619.629 1096.68 628.418 1093.75 636.719 1089.36L1088.37 826.973C1104.26 840.96 1110.84 854.848 1110.84 872.559Z" fill="white" fill-opacity="0.85"/>
  <path d="M1110.84 647.461C1110.84 674.316 1095.7 691.895 1056.15 714.844L674.316 937.012C650.391 950.684 632.324 957.031 611.816 957.031C591.797 957.031 573.242 950.684 549.805 937.012L167.969 714.844C128.418 691.895 113.281 674.316 113.281 647.461C113.281 629.696 119.905 615.99 135.899 601.96L587.402 864.258C595.703 868.652 604.492 871.582 611.816 871.582C619.629 871.582 628.418 868.652 636.719 864.258L1088.22 601.96C1104.22 615.99 1110.84 629.696 1110.84 647.461Z" fill="white" fill-opacity="0.85"/>
  <path d="M167.969 480.469L549.805 702.148C573.242 715.82 591.797 722.168 611.816 722.168C632.324 722.168 650.391 715.82 674.316 702.148L1056.15 480.469C1095.7 457.52 1110.84 439.453 1110.84 412.598C1110.84 386.23 1095.7 368.164 1056.15 345.215L674.316 123.535C650.391 109.863 632.324 103.516 611.816 103.516C591.797 103.516 573.242 109.863 549.805 123.535L167.969 345.215C128.418 368.164 113.281 386.23 113.281 412.598C113.281 439.453 128.418 457.52 167.969 480.469Z" fill="white" fill-opacity="0.85"/>
 </g>
</svg>
