<svg width="1024" height="1024" viewBox="0 0 1024 1024" fill="none" xmlns="http://www.w3.org/2000/svg">
<path d="M770 633.328C770 646.205 762.471 654.522 744.448 665.021L541.819 782.491C530.925 788.832 522.408 792 512.9 792C503.591 792 495.074 788.832 484.18 782.491L281.552 665.021C263.527 654.522 256 646.205 256 633.328C256 625.628 258.776 619.535 265.016 613.543L501.214 750.4C505.176 752.579 509.335 753.966 512.9 753.966C516.664 753.966 520.823 752.579 524.785 750.4L760.982 613.543C767.221 619.535 770 625.628 770 633.328Z" fill="white"/>
<path d="M770 513.877C770 526.555 762.471 534.875 744.448 545.572L541.819 663.042C530.925 669.383 522.408 672.551 512.9 672.551C503.591 672.551 495.074 669.383 484.18 663.042L281.552 545.572C263.527 534.875 256 526.555 256 513.877C256 506.177 258.776 500.086 265.016 494.093L501.214 630.951C505.176 633.13 509.335 634.517 512.9 634.517C516.664 634.517 520.823 633.13 524.785 630.951L760.982 494.093C767.221 500.086 770 506.177 770 513.877Z" fill="white"/>
<path d="M281.552 421.17L484.18 538.639C495.074 544.978 503.591 548.147 512.9 548.147C522.408 548.147 530.925 544.978 541.819 538.639L744.448 421.17C762.471 410.671 770 402.351 770 389.475C770 376.797 762.471 368.477 744.448 357.78L541.819 240.508C530.925 233.971 522.408 231 512.9 231C503.591 231 495.074 233.971 484.18 240.508L281.552 357.78C263.527 368.477 256 376.797 256 389.475C256 402.351 263.527 410.671 281.552 421.17Z" fill="white"/>
</svg>
