<svg xmlns="http://www.w3.org/2000/svg" xmlns:xlink="http://www.w3.org/1999/xlink" width="500" height="500" zoomAndPan="magnify" viewBox="0 0 375 374.999991" height="500" preserveAspectRatio="xMidYMid meet" version="1.0"><defs><g/></defs><g fill="#727ac5" fill-opacity="1"><g transform="translate(60.207916, 220.364417)"><g><path d="M 22.859375 1.109375 C 18.785156 1.109375 15.242188 0.179688 12.234375 -1.671875 C 9.234375 -3.535156 6.929688 -6.140625 5.328125 -9.484375 C 3.722656 -12.835938 2.921875 -16.691406 2.921875 -21.046875 C 2.921875 -25.460938 3.734375 -29.375 5.359375 -32.78125 C 6.992188 -36.1875 9.359375 -38.863281 12.453125 -40.8125 C 15.546875 -42.757812 19.210938 -43.734375 23.453125 -43.734375 C 26.429688 -43.734375 29.148438 -43.144531 31.609375 -41.96875 C 34.078125 -40.800781 35.972656 -39.15625 37.296875 -37.03125 L 37.296875 -63.921875 L 47.6875 -63.921875 L 47.6875 0 L 38.0625 0 L 37.375 -6.609375 C 36.113281 -4.148438 34.179688 -2.25 31.578125 -0.90625 C 28.972656 0.4375 26.066406 1.109375 22.859375 1.109375 Z M 25.171875 -8.5 C 28.835938 -8.5 31.757812 -9.6875 33.9375 -12.0625 C 36.113281 -14.445312 37.203125 -17.554688 37.203125 -21.390625 C 37.203125 -25.234375 36.113281 -28.359375 33.9375 -30.765625 C 31.757812 -33.171875 28.835938 -34.375 25.171875 -34.375 C 21.503906 -34.375 18.625 -33.15625 16.53125 -30.71875 C 14.445312 -28.28125 13.40625 -25.171875 13.40625 -21.390625 C 13.40625 -17.609375 14.445312 -14.515625 16.53125 -12.109375 C 18.625 -9.703125 21.503906 -8.5 25.171875 -8.5 Z M 25.171875 -8.5 "/></g></g></g><g fill="#727ac5" fill-opacity="1"><g transform="translate(113.390387, 220.364417)"><g><path d="M 12.796875 0 L 0.859375 0 L 15.46875 -20.796875 L 0.859375 -42.453125 L 13.0625 -42.453125 L 22.421875 -28.015625 L 31.453125 -42.453125 L 43.21875 -42.453125 L 28.78125 -20.96875 L 42.78125 0 L 30.765625 0 L 21.734375 -14 Z M 12.796875 0 "/></g></g></g><g fill="#ffffff" fill-opacity="1"><g transform="translate(157.472117, 220.364417)"><g><path d="M 14.78125 0 L 1.03125 -42.453125 L 11.9375 -42.453125 L 17.53125 -24.234375 C 18.445312 -20.960938 19.304688 -17.296875 20.109375 -13.234375 C 20.503906 -15.296875 20.914062 -17.113281 21.34375 -18.6875 C 21.78125 -20.257812 22.34375 -22.109375 23.03125 -24.234375 L 28.875 -42.453125 L 39.53125 -42.453125 L 45.1875 -24.234375 C 45.363281 -23.660156 45.632812 -22.6875 46 -21.3125 C 46.375 -19.9375 46.75 -18.503906 47.125 -17.015625 C 47.5 -15.523438 47.769531 -14.289062 47.9375 -13.3125 C 48.28125 -14.914062 48.738281 -16.804688 49.3125 -18.984375 C 49.882812 -21.160156 50.375 -22.910156 50.78125 -24.234375 L 56.453125 -42.453125 L 67.53125 -42.453125 L 52.84375 0 L 43.046875 0 L 37.203125 -18.390625 C 36.347656 -21.191406 35.675781 -23.582031 35.1875 -25.5625 C 34.695312 -27.539062 34.367188 -29.070312 34.203125 -30.15625 C 33.972656 -29.1875 33.628906 -27.828125 33.171875 -26.078125 C 32.710938 -24.328125 31.9375 -21.707031 30.84375 -18.21875 L 25 0 Z M 14.78125 0 "/></g></g></g><g fill="#ffffff" fill-opacity="1"><g transform="translate(225.947774, 220.364417)"><g><path d="M 10.65625 -50.953125 C 8.875 -50.953125 7.351562 -51.566406 6.09375 -52.796875 C 4.832031 -54.023438 4.203125 -55.53125 4.203125 -57.3125 C 4.203125 -59.082031 4.832031 -60.566406 6.09375 -61.765625 C 7.351562 -62.972656 8.875 -63.578125 10.65625 -63.578125 C 12.375 -63.578125 13.847656 -62.972656 15.078125 -61.765625 C 16.304688 -60.566406 16.921875 -59.082031 16.921875 -57.3125 C 16.921875 -55.53125 16.304688 -54.023438 15.078125 -52.796875 C 13.847656 -51.566406 12.375 -50.953125 10.65625 -50.953125 Z M 5.40625 0 L 5.40625 -42.453125 L 15.890625 -42.453125 L 15.890625 0 Z M 5.40625 0 "/></g></g></g><g fill="#ffffff" fill-opacity="1"><g transform="translate(247.255134, 220.364417)"><g><path d="M 15.984375 0 L 5.578125 0 L 5.578125 -63.921875 L 15.984375 -63.921875 L 15.984375 -24.65625 L 32.484375 -42.453125 L 45.625 -42.453125 L 29.46875 -25.609375 L 45.28125 0 L 33.25 0 L 22.171875 -17.875 L 15.984375 -11.421875 Z M 15.984375 0 "/></g></g></g><g fill="#ffffff" fill-opacity="1"><g transform="translate(293.478353, 220.364417)"><g><path d="M 10.65625 -50.953125 C 8.875 -50.953125 7.351562 -51.566406 6.09375 -52.796875 C 4.832031 -54.023438 4.203125 -55.53125 4.203125 -57.3125 C 4.203125 -59.082031 4.832031 -60.566406 6.09375 -61.765625 C 7.351562 -62.972656 8.875 -63.578125 10.65625 -63.578125 C 12.375 -63.578125 13.847656 -62.972656 15.078125 -61.765625 C 16.304688 -60.566406 16.921875 -59.082031 16.921875 -57.3125 C 16.921875 -55.53125 16.304688 -54.023438 15.078125 -52.796875 C 13.847656 -51.566406 12.375 -50.953125 10.65625 -50.953125 Z M 5.40625 0 L 5.40625 -42.453125 L 15.890625 -42.453125 L 15.890625 0 Z M 5.40625 0 "/></g></g></g></svg>